<?xml version="1.0" encoding="UTF-8"?>
<svg width="512mm" height="512mm" version="1.1" viewBox="0 0 512 512"
    xmlns="http://www.w3.org/2000/svg"
    xmlns:cc="http://creativecommons.org/ns#"
    xmlns:dc="http://purl.org/dc/elements/1.1/"
    xmlns:rdf="http://www.w3.org/1999/02/22-rdf-syntax-ns#">
    <metadata>
        <rdf:RDF>
            <cc:Work rdf:about="">
                <dc:format>image/svg+xml</dc:format>
                <dc:type rdf:resource="http://purl.org/dc/dcmitype/StillImage"/>
                <dc:title/>
            </cc:Work>
        </rdf:RDF>
    </metadata>
    <g fill="#fff">
        <circle cx="256" cy="256" r="230" />
    </g>
    <g transform="translate(30.571 54.516)" stroke="#000">
        <g fill="none" stroke-width="10">
            <circle cx="108.7" cy="245.33" r="74.976"/>
            <circle cx="342.16" cy="245.33" r="74.976"/>
            <path d="m183.11 245.33h85.059"/>
        </g>
        <g>
            <g stroke="#000" stroke-width="2" aria-label="w">
                <path d="m100.03 287.96q-2.4608 0-4.3063-7.3823-1.5995-6.521-2.7068-16.118-0.9843-9.72-2.0916-24.485-0.61519-9.597-1.7225-20.547-0.86127-9.1048-2.0916-11.689 1.1073-2.2147 3.5681-2.2147 3.9372 0 3.9372 8.1205 0 9.597 2.5838 28.053 2.5838 18.333 2.9529 26.699l0.61519-4.1833q1.2304-8.2435 2.0916-15.503 0.98431-7.3823 1.5995-15.872 0.86126-9.4739 0.86126-18.702l3.322-1.4765q1.5995 0 2.5838 0.86127 1.1073 0.73823 1.1073 2.2147v0.98431q1.9686 6.8901 3.199 15.134 1.3534 8.1205 2.3377 19.194 0.73823 8.4896 1.7225 15.872 2.3377-16.487 2.3377-40.603 0-3.8142 0.98431-9.3509 0.86126-5.6598 0.86126-9.2278-0.36911-1.1073-0.36911-2.0916 0-2.9529 3.6911-2.9529 1.4765 0 2.3377 0.73823 0.86127 0.73823 0.86127 2.0916v1.8456q0 1.8456-0.36912 3.199v0.61519q-1.5995 4.9215-1.5995 11.319v8.9818q0 7.7514-1.8456 23.131-1.9686 15.011-1.9686 22.393v2.2147q0 2.8299-0.61519 4.7985-0.73823 2.4608-3.5681 2.4608-1.9686 0-3.076-1.2304-0.9843-1.3534-0.9843-3.322 0-9.9661-2.0916-25.838-1.1073-7.1362-2.3377-14.395l-1.9686-12.919q-0.49215 3.5681-0.49215 7.0132 0 6.8901-0.98431 18.21-0.9843 11.32-3.076 22.024-2.3377 11.935-5.2906 11.935z" />
            </g>
            <g stroke="#000" stroke-width="2" aria-label="n">
                <path d="m353.91 286.42q-1.4765 0-2.2147-0.73823-0.73823-0.86126-1.1073-2.8299l-0.73823-2.3377v-0.61519q0-4.0603-8.4896-27.684-8.3666-23.623-13.165-34.943v61.888l0.49216 0.86127q0.12303 0.24607 0.49215 0.86126 0.36911 0.61519 0.36911 1.2304 0 1.5995-1.1073 2.7068t-2.7068 1.1073q-3.9372 0-3.9372-7.5053l-0.12304-21.04q-0.12304-9.4739-0.12304-21.163 0-3.9372 0.36912-11.443 0.36911-7.7514 0.36911-11.443 0-5.7828 4.4294-9.1048v0.73822q0.73823-0.24607 0.9843-0.24607 2.8299 0 7.1362 9.843 3.4451 7.8744 6.1519 16.61 2.8299 8.7357 7.3823 24.854l1.2304 4.4294q2.8299 9.9661 4.3063 14.272 2.4608-26.453 2.4608-62.503v-1.5995q-0.12304-0.73823-0.12304-1.5995 0-3.6911 2.9529-3.6911 1.7225 0 2.5838 1.3534 0.9843 1.3534 0.9843 3.4451v9.2278q-0.24607 18.948-1.4764 41.095t-2.9529 24.977q-3.5681 0.9843-4.4294 0.9843z" />
            </g>
            <path transform="matrix(3.1953 0 0 3.1953 -60.466 -250.35)" d="m89.032 140.47c-2.6275-2.2382-9.729-8.4696-13.117-13.231-2.4259-3.4091-6.7169-9.5295-6.8557-13.711-0.1723-5.1929 2.9073-8.7597 7.2213-9.278 4.4171-0.53076 10.335 6.392 12.752 9.501 2.4163-3.109 8.3344-10.032 12.752-9.501 4.314 0.51836 7.3936 4.0851 7.2213 9.278-0.13876 4.1818-4.4298 10.302-6.8557 13.711-3.3882 4.7614-10.49 10.993-13.117 13.231z" fill="#03a9f4" stroke-width="3.1296" />
        </g>
    </g>
</svg>
